<?xml version="1.0" encoding="UTF-8"?>
<svg xmlns="http://www.w3.org/2000/svg" xmlns:xlink="http://www.w3.org/1999/xlink" xmlns:svgjs="http://svgjs.com/svgjs" version="1.1" width="512" height="512" x="0" y="0" viewBox="0 0 24 24" style="enable-background:new 0 0 512 512" xml:space="preserve" class="">
  <g>
    <path xmlns="http://www.w3.org/2000/svg" d="m12 16c-.205 0-.401-.084-.543-.232l-5.25-5.5c-.455-.477-.114-1.268.543-1.268h2.75v-1.25c0-4.273 3.477-7.75 7.75-7.75.414 0 .75.336.75.75s-.336.75-.75.75c-1.517 0-2.75 1.233-2.75 2.75v4.75h2.75c.657 0 .998.791.543 1.268l-5.25 5.5c-.142.148-.338.232-.543.232z" fill="#ffffff" data-original="#000000" style="" class=""/>
    <path xmlns="http://www.w3.org/2000/svg" d="m21 18h-18c-1.654 0-3 1.346-3 3s1.346 3 3 3h18c1.654 0 3-1.346 3-3s-1.346-3-3-3z" fill="#ffffff" data-original="#000000" style="" class=""/>
  </g>
</svg>
